<?xml version="1.0" encoding="UTF-8" standalone="no"?>
<!DOCTYPE svg PUBLIC "-//W3C//DTD SVG 1.1//EN" "http://www.w3.org/Graphics/SVG/1.1/DTD/svg11.dtd">
<svg width="100%" height="100%" viewBox="0 0 733 1062" version="1.1" xmlns="http://www.w3.org/2000/svg" xmlns:xlink="http://www.w3.org/1999/xlink" xml:space="preserve" xmlns:serif="http://www.serif.com/" style="fill-rule:evenodd;clip-rule:evenodd;stroke-linejoin:round;stroke-miterlimit:2;">
    <g transform="matrix(1,0,0,1,-235.277,-87.9051)">
        <g transform="matrix(0.838972,0,0,0.838972,-601.071,-516.347)">
            <clipPath id="_clip1">
                <rect x="996.873" y="705.071" width="872.615" height="1136.22"/>
            </clipPath>
            <g clip-path="url(#_clip1)">
                <g>
                    <path d="M1202.48,766.609C1201.78,765.75 1188.54,773.696 1187.94,774.095C1172.42,784.431 1158.68,797.495 1145.78,810.883C1100.07,858.338 1085.32,930.655 1089.96,994.919C1096.39,1084.02 1124.92,1175.87 1170.93,1252.42C1189.19,1282.79 1211.4,1309.36 1232.72,1337.46C1241.09,1348.49 1256.44,1363.58 1257.51,1378.24C1258.5,1391.78 1243.14,1401.4 1234.18,1408.84C1208.28,1430.35 1182.82,1452.6 1157.94,1475.28C1071.13,1554.39 1055.75,1622.12 1024.33,1729.62C1019.82,1745.05 993.664,1806.18 1000.8,1818.93C1008.2,1832.14 1039.27,1827.2 1051.3,1827.64C1102.5,1829.5 1153.61,1829.35 1204.83,1829.63C1367.14,1830.52 1533.71,1841 1695.22,1820.13C1728.31,1815.85 1761.05,1809.23 1794.27,1805.89C1810.43,1804.27 1834.42,1805.12 1848.75,1796.46C1878.84,1778.28 1861.27,1690.81 1852.24,1664.64C1833.8,1611.25 1794.37,1567.69 1761.55,1522.85C1739.96,1493.35 1720.45,1462.32 1698.45,1433.16C1679.49,1408.02 1654.12,1386.11 1642.6,1356.2C1622.94,1305.21 1652.39,1265.89 1668.58,1219.27C1682.58,1178.97 1686.67,1136.68 1687.17,1094.23C1688.04,1021.13 1686.59,930.587 1649.03,865.904C1627.57,828.935 1598.04,789.835 1561.47,766.609C1535.04,749.823 1503.95,742.917 1473.71,736.556C1378.95,716.624 1285.52,712.451 1202.48,766.609Z" style="fill:rgb(15,15,15);"/>
                    <path d="M1201.7,763.89C1201.56,763.911 1201.41,763.94 1201.26,763.978C1198.44,764.681 1187.02,771.466 1186.44,771.846C1170.76,782.29 1156.87,795.481 1143.84,809.009C1097.6,857.006 1082.57,930.116 1087.26,995.113C1093.73,1084.63 1122.39,1176.9 1168.62,1253.81C1186.92,1284.26 1209.19,1310.91 1230.57,1339.09C1235.55,1345.66 1243.04,1353.67 1248.45,1362.18C1251.84,1367.49 1254.42,1372.99 1254.82,1378.44C1255.25,1384.44 1251.91,1389.5 1247.63,1393.96C1242.87,1398.91 1236.87,1403.1 1232.45,1406.77C1206.52,1428.3 1181.03,1450.58 1156.12,1473.28C1068.87,1552.79 1053.32,1620.81 1021.73,1728.86C1018.57,1739.68 1004.79,1772.95 999.254,1796.31C997.777,1802.54 996.885,1808.1 996.873,1812.4C996.865,1815.73 997.411,1818.4 998.444,1820.25C1001.77,1826.19 1009.2,1829.15 1017.97,1830.26C1029.76,1831.74 1043.93,1830.08 1051.2,1830.34C1102.42,1832.2 1153.57,1832.05 1204.81,1832.33C1367.25,1833.22 1533.94,1843.69 1695.57,1822.81C1728.63,1818.53 1761.35,1811.91 1794.54,1808.58C1804.28,1807.6 1816.85,1807.51 1828.45,1805.72C1836.52,1804.48 1844.14,1802.4 1850.14,1798.78C1859.77,1792.96 1865.06,1780.63 1867.16,1765.28C1871.8,1731.26 1861.19,1682.3 1854.79,1663.76C1836.27,1610.12 1796.7,1566.31 1763.73,1521.25C1742.14,1491.75 1722.62,1460.7 1700.61,1431.53C1681.79,1406.59 1656.55,1384.9 1645.12,1355.23C1635.54,1330.38 1637.97,1308.38 1644.72,1286.91C1651.64,1264.9 1663.05,1243.44 1671.13,1220.15C1685.23,1179.58 1689.37,1137 1689.88,1094.26C1690.75,1020.72 1689.16,929.63 1651.37,864.548C1629.69,827.221 1599.84,787.779 1562.92,764.328C1536.21,747.368 1504.82,740.339 1474.26,733.912C1379.06,713.886 1285.19,709.801 1201.7,763.89ZM1202.4,769.309C1202.94,769.324 1203.48,769.182 1203.95,768.872C1286.37,715.123 1379.11,719.419 1473.15,739.2C1503.08,745.495 1533.86,752.277 1560.02,768.889C1596.24,791.891 1625.44,830.649 1646.69,867.261C1684.02,931.544 1685.34,1021.56 1684.47,1094.2C1683.97,1136.35 1679.93,1178.36 1666.03,1218.38C1657.92,1241.72 1646.51,1263.23 1639.57,1285.29C1632.46,1307.88 1630,1331.03 1640.08,1357.18C1651.69,1387.31 1677.18,1409.45 1696.3,1434.79C1718.29,1463.94 1737.79,1494.96 1759.37,1524.44C1792.03,1569.07 1831.34,1612.39 1849.68,1665.52C1855.04,1681.05 1863.44,1718.41 1862.88,1749.69C1862.69,1759.94 1861.55,1769.54 1858.97,1777.44C1856.53,1784.89 1852.86,1790.82 1847.35,1794.15C1841.89,1797.45 1834.96,1799.25 1827.63,1800.38C1816.12,1802.15 1803.66,1802.23 1794,1803.2C1760.76,1806.54 1727.98,1813.17 1694.87,1817.45C1533.49,1838.3 1367.04,1827.81 1204.84,1826.93C1153.65,1826.65 1102.57,1826.8 1051.4,1824.94C1044.23,1824.68 1030.26,1826.36 1018.64,1824.89C1011.81,1824.03 1005.75,1822.24 1003.16,1817.61C1002.48,1816.39 1002.27,1814.61 1002.28,1812.42C1002.29,1808.44 1003.15,1803.31 1004.51,1797.56C1010.03,1774.28 1023.77,1741.16 1026.92,1730.38C1058.19,1623.42 1073.39,1555.99 1159.76,1477.28C1184.61,1454.63 1210.04,1432.4 1235.91,1410.92C1241.41,1406.35 1249.24,1400.95 1254.42,1394.4C1258.23,1389.58 1260.65,1384.15 1260.2,1378.05C1259.75,1371.77 1256.9,1365.39 1253.01,1359.28C1247.52,1350.64 1239.93,1342.49 1234.88,1335.83C1213.61,1307.8 1191.45,1281.31 1173.25,1251.03C1127.45,1174.83 1099.06,1083.41 1092.65,994.724C1088.07,931.195 1102.54,859.67 1147.73,812.758C1160.49,799.509 1174.08,786.572 1189.44,776.343C1189.91,776.028 1200.92,770.109 1202.4,769.309ZM1200.58,768.533L1200.59,768.544L1200.57,768.527L1200.58,768.533ZM1200.48,768.428L1200.5,768.448L1200.48,768.423L1200.48,768.428Z"/>
                    <path d="M1366.21,780.789C1364.77,779.594 1349.31,783.221 1347.55,783.423C1333.64,785.015 1319.65,786.009 1305.78,787.926C1237.3,797.391 1172.35,838.84 1146.11,903.953C1112.71,986.839 1115.32,1084.64 1142.82,1168.74C1152.28,1197.65 1163.07,1227.2 1180.84,1252.23C1208.32,1290.91 1248.68,1317.56 1285.73,1346.06C1324.87,1376.17 1352.92,1421.7 1409.17,1417.12C1451.27,1413.69 1493.35,1384.28 1518.89,1351.73C1531.56,1335.59 1540.11,1316.71 1553.15,1300.85C1585.98,1260.89 1622.02,1224.92 1637,1173.78C1647.95,1136.37 1649.61,1099.47 1650.8,1060.89C1652.8,995.82 1648.12,934.018 1613.71,877.096C1596.93,849.343 1572.35,833.981 1544.85,818.63C1526.03,808.128 1507.87,796.972 1487.32,790.027C1454.05,778.785 1383.12,776.029 1348.61,783.423" style="fill:rgb(148,115,78);"/>
                    <path d="M1366.62,778.043C1366.54,778.021 1366.45,778 1366.37,777.982C1365.78,777.856 1364.86,777.811 1363.7,777.889C1358.91,778.215 1348.66,780.576 1347.24,780.739C1333.31,782.333 1319.3,783.33 1305.41,785.25C1235.99,794.845 1170.2,836.937 1143.6,902.943C1109.97,986.409 1112.56,1084.9 1140.26,1169.58C1149.8,1198.75 1160.71,1228.55 1178.64,1253.79C1206.27,1292.7 1246.82,1319.54 1284.08,1348.2C1303.65,1363.26 1320.45,1382.17 1339.39,1396.74C1358.84,1411.71 1380.5,1422.17 1409.39,1419.81C1452.2,1416.33 1495.04,1386.5 1521.02,1353.4C1533.67,1337.27 1542.22,1318.41 1555.24,1302.56C1588.3,1262.33 1624.51,1226.04 1639.59,1174.54C1650.61,1136.9 1652.31,1099.78 1653.5,1060.97C1655.51,995.372 1650.71,933.084 1616.02,875.698C1598.99,847.521 1574.09,831.856 1546.16,816.27C1527.2,805.688 1508.89,794.466 1488.18,787.467C1459.78,777.868 1404.2,774.383 1366.62,778.043ZM1348.09,786.073C1347.99,786.089 1347.91,786.1 1347.85,786.107C1333.96,787.697 1320,788.689 1306.15,790.602C1238.6,799.938 1174.49,840.743 1148.62,904.963C1115.45,987.27 1118.08,1084.39 1145.39,1167.9C1154.76,1196.56 1165.43,1225.86 1183.04,1250.66C1210.37,1289.13 1250.54,1315.58 1287.38,1343.92C1306.95,1358.98 1323.75,1377.88 1342.68,1392.46C1361.11,1406.64 1381.59,1416.66 1408.95,1414.43C1450.34,1411.06 1491.66,1382.06 1516.77,1350.06C1529.44,1333.9 1538.01,1315.01 1551.06,1299.13C1583.66,1259.46 1619.53,1223.8 1634.4,1173.02C1645.3,1135.84 1646.92,1099.15 1648.1,1060.8C1650.08,996.267 1645.53,934.951 1611.39,878.493C1594.87,851.165 1570.61,836.105 1543.53,820.989C1524.86,810.568 1506.85,799.478 1486.45,792.586C1458.45,783.125 1403.5,779.747 1366.67,783.45C1366.55,783.472 1366.42,783.485 1366.29,783.489C1359.97,784.135 1354.18,784.992 1349.18,786.065C1348.81,786.144 1348.44,786.143 1348.09,786.073Z"/>
                    <path d="M1396.28,1155.46C1395.6,1156.56 1395.5,1157.98 1396.14,1159.21C1397.11,1161.07 1399.41,1161.81 1401.28,1160.84C1401.7,1160.62 1402.75,1159.94 1403.39,1158.26C1404.44,1155.45 1406.94,1142.71 1408.19,1139.1C1414.76,1120.09 1422.56,1101.19 1431.61,1083.23C1442.64,1061.33 1458.01,1040.88 1479.94,1028.96C1501.94,1017.02 1536.07,1013.95 1563.59,1023.14C1581.49,1029.12 1596.61,1040.33 1603.34,1058C1604.09,1059.96 1606.29,1060.95 1608.26,1060.2C1610.22,1059.45 1611.21,1057.25 1610.46,1055.28C1602.9,1035.44 1586.11,1022.62 1566,1015.91C1536.5,1006.05 1499.89,1009.46 1476.31,1022.26C1453,1034.93 1436.52,1056.53 1424.8,1079.8C1415.6,1098.06 1407.67,1117.28 1400.99,1136.6C1399.81,1140 1396.6,1154.05 1396.28,1155.46Z"/>
                    <path d="M1341.36,1162.28C1340.92,1161.38 1339.98,1159.46 1339.53,1158.73C1338.01,1156.24 1336.5,1153.75 1334.94,1151.28C1330.35,1144.04 1325.45,1137.05 1320.52,1130.05C1306.06,1109.53 1289.7,1089.39 1270.1,1073.52C1254.88,1061.2 1238.07,1050.39 1218.16,1048.11C1177.37,1043.46 1149.58,1073.63 1150.85,1112.99C1150.92,1115.09 1152.68,1116.74 1154.79,1116.67C1156.89,1116.61 1158.54,1114.85 1158.47,1112.74C1157.36,1078.24 1181.54,1051.61 1217.3,1055.69C1235.74,1057.79 1251.21,1068.03 1265.31,1079.45C1284.36,1094.87 1300.23,1114.49 1314.29,1134.44C1319.15,1141.34 1323.98,1148.23 1328.5,1155.36C1330.04,1157.79 1331.53,1160.26 1333.04,1162.72C1333.58,1163.6 1334.7,1166.03 1334.88,1166.36C1336.35,1169.11 1339.14,1168.31 1339.34,1168.25C1339.43,1168.22 1343.26,1166.62 1341.67,1162.86C1341.58,1162.65 1341.48,1162.46 1341.36,1162.28Z"/>
                    <path d="M1400.63,1208.78C1399.87,1207.67 1398.54,1207 1397.11,1207.14C1395.15,1207.33 1394.35,1208.37 1393.97,1208.93C1393.18,1210.13 1392.9,1211.6 1393.96,1213.24C1394.21,1213.63 1394.75,1214.26 1395.68,1214.81C1396.56,1215.34 1398.49,1216.1 1399.26,1216.65C1401.89,1218.52 1404.52,1220.39 1407.13,1222.29C1414.78,1227.86 1422.17,1233.74 1429.02,1240.29C1448.76,1259.15 1460.81,1285.29 1463.78,1312.35C1464.01,1314.44 1465.89,1315.96 1467.98,1315.73C1470.07,1315.5 1471.58,1313.61 1471.35,1311.52C1468.19,1282.69 1455.31,1254.88 1434.28,1234.78C1427.19,1228 1419.54,1221.89 1411.61,1216.13C1408.98,1214.21 1406.33,1212.32 1403.67,1210.44C1403.1,1210.03 1401.63,1209.28 1400.63,1208.78Z"/>
                    <path d="M1337.05,1223.28C1330.36,1235.49 1322.45,1246.93 1316.59,1259.07C1310.46,1271.76 1306.54,1285.19 1308.16,1300.85C1308.37,1302.94 1310.25,1304.46 1312.34,1304.25C1314.43,1304.03 1315.95,1302.15 1315.74,1300.06C1314.28,1285.94 1317.92,1273.84 1323.45,1262.38C1329.26,1250.37 1337.11,1239.03 1343.74,1226.94C1344.75,1225.1 1344.07,1222.78 1342.23,1221.77C1340.38,1220.76 1338.06,1221.43 1337.05,1223.28Z"/>
                    <path d="M1343.5,1257.31L1345.8,1252C1347.09,1249.04 1348.34,1245.14 1350.23,1241.86C1351.59,1239.51 1353.24,1237.39 1355.94,1237.02C1360.81,1236.37 1374.12,1235.39 1383.68,1235.77C1387.25,1235.91 1390.24,1236.14 1391.77,1236.83C1395.02,1238.28 1397.72,1240.7 1400.4,1243.18C1403.59,1246.13 1406.75,1249.16 1410.39,1251.34C1412.19,1252.42 1414.53,1251.84 1415.62,1250.04C1416.7,1248.23 1416.11,1245.89 1414.31,1244.81C1411.11,1242.89 1408.38,1240.17 1405.57,1237.58C1402.27,1234.53 1398.87,1231.65 1394.88,1229.87C1392.8,1228.94 1388.81,1228.34 1383.98,1228.15C1373.96,1227.76 1360.02,1228.78 1354.92,1229.47C1350.7,1230.04 1347.54,1232.43 1345.12,1235.75C1342.25,1239.68 1340.51,1245.04 1338.81,1248.95C1338.59,1249.44 1336.48,1253.74 1335.99,1255.74C1335.4,1258.2 1336.5,1259.81 1337.19,1260.41C1338.78,1261.8 1341.19,1261.63 1342.57,1260.05C1343.26,1259.27 1343.56,1258.28 1343.5,1257.31ZM1342.5,1254.96L1342.51,1254.98L1342.5,1254.96L1342.5,1254.96ZM1342.35,1254.81L1342.38,1254.84L1342.36,1254.81L1342.35,1254.81Z"/>
                    <path d="M1361.19,1249.63C1361.39,1247.42 1350.81,1245.34 1351.54,1251.11C1352.42,1258 1365.19,1258.81 1361.94,1251.13"/>
                    <path d="M1363.88,1249.25C1363.79,1248.33 1363.32,1247.36 1362.3,1246.55C1361.09,1245.6 1358.66,1244.75 1356.25,1244.68C1353.43,1244.59 1350.8,1245.62 1349.59,1247.62C1348.99,1248.61 1348.66,1249.86 1348.86,1251.45C1349.48,1256.28 1354.13,1259.14 1358.19,1259.28C1360.56,1259.37 1362.65,1258.54 1363.88,1257.08C1365.14,1255.58 1365.79,1253.29 1364.43,1250.08C1364.3,1249.76 1364.11,1249.48 1363.88,1249.25ZM1358.7,1250.68C1358.35,1250.54 1357.69,1250.28 1357.19,1250.19C1356.39,1250.05 1355.51,1250.01 1354.76,1250.19C1354.55,1250.24 1354.29,1250.2 1354.23,1250.39C1354.19,1250.5 1354.21,1250.62 1354.22,1250.77C1354.49,1252.83 1356.65,1253.82 1358.39,1253.88C1358.75,1253.9 1359.1,1253.87 1359.41,1253.77C1359.54,1253.73 1359.69,1253.71 1359.75,1253.6C1359.91,1253.25 1359.71,1252.8 1359.46,1252.19C1359.37,1251.98 1359.31,1251.76 1359.27,1251.54C1359.03,1251.29 1358.83,1251 1358.7,1250.68Z"/>
                    <path d="M1380.6,1253.04C1382.49,1251.3 1382.62,1248.2 1385.6,1246.57C1392.75,1242.65 1388.93,1252.85 1380.6,1253.04Z"/>
                    <path d="M1378.77,1251.06C1377.94,1251.82 1377.68,1253.01 1378.1,1254.05C1378.52,1255.09 1379.54,1255.77 1380.67,1255.74C1384.46,1255.65 1387.52,1253.92 1389.46,1251.97C1390.96,1250.46 1391.78,1248.79 1391.99,1247.55C1392.3,1245.71 1391.59,1244.36 1390.41,1243.59C1389.44,1242.95 1387.38,1242.51 1384.3,1244.2C1382.28,1245.31 1381.18,1246.87 1380.31,1248.49C1379.82,1249.41 1379.5,1250.38 1378.77,1251.06Z"/>
                    <path d="M1377.54,1157.15C1378.76,1176.22 1375.25,1189.24 1382.62,1209.09C1383.35,1211.06 1385.55,1212.07 1387.52,1211.34C1389.49,1210.61 1390.5,1208.41 1389.77,1206.44C1382.7,1187.42 1386.31,1174.93 1385.15,1156.67C1385.01,1154.57 1383.2,1152.97 1381.1,1153.11C1379,1153.24 1377.41,1155.05 1377.54,1157.15Z"/>
                    <path d="M1352.31,1158.42C1352.38,1158.67 1352.78,1160.16 1352.91,1161.19C1353.31,1164.33 1353.36,1168.04 1353.58,1169.56C1355.37,1181.94 1356.23,1194.11 1353.93,1206.46C1353.54,1208.53 1354.91,1210.52 1356.98,1210.91C1359.05,1211.29 1361.04,1209.93 1361.42,1207.86C1363.88,1194.67 1363.03,1181.68 1361.12,1168.46C1360.86,1166.68 1360.83,1161.9 1360.21,1158.52C1359.78,1156.2 1358.95,1154.38 1358.07,1153.42C1356.63,1151.89 1354.22,1151.81 1352.68,1153.24C1351.21,1154.61 1351.07,1156.88 1352.31,1158.42Z"/>
                    <g transform="matrix(-1,1.22465e-16,-1.22465e-16,-1,2772.81,2677.93)">
                        <path d="M1345.02,1347.63C1345.21,1346.89 1345.76,1346.26 1346.42,1345.66C1347.46,1344.71 1348.8,1343.89 1350.27,1343.15C1355.35,1340.58 1361.9,1339.07 1365.06,1338.4C1387.07,1333.74 1409.11,1332.73 1429.78,1343.06C1431.66,1344 1433.95,1343.24 1434.89,1341.35C1435.83,1339.47 1435.07,1337.18 1433.19,1336.24C1410.92,1325.11 1387.2,1325.93 1363.48,1330.94C1359.28,1331.83 1349.86,1334.13 1343.92,1338.01C1340.63,1340.15 1338.36,1342.84 1337.63,1345.79C1337.12,1347.83 1338.36,1349.9 1340.4,1350.41C1342.45,1350.92 1344.52,1349.67 1345.02,1347.63Z"/>
                    </g>
                    <path d="M1344.32,1281.04C1344.19,1281.72 1344.06,1282.54 1344.08,1282.94C1344.19,1285.01 1344.49,1287.07 1344.87,1289.1C1345.94,1294.94 1347.77,1300.66 1349.74,1306.25C1350.44,1308.23 1352.62,1309.27 1354.6,1308.57C1356.59,1307.87 1357.63,1305.7 1356.93,1303.71C1355.09,1298.49 1353.37,1293.17 1352.36,1287.72C1352.06,1286.09 1351.81,1284.43 1351.7,1282.78C1351.8,1282.39 1352.11,1281.04 1352.14,1280.55C1352.18,1279.71 1352,1279.02 1351.78,1278.53C1351.39,1277.63 1350.76,1277 1349.98,1276.59C1349.24,1276.2 1348.21,1275.89 1346.8,1276.35C1344.84,1276.99 1343.74,1279.07 1344.32,1281.04ZM1346.9,1283.63C1347.5,1283.85 1348.23,1283.9 1349.15,1283.6C1348.39,1283.85 1347.61,1283.84 1346.9,1283.63Z"/>
                    <path d="M1370.27,1280.94C1369.74,1283.3 1369.91,1286.43 1370.47,1289.71C1371.15,1293.77 1372.4,1298.13 1372.81,1301.08C1373.1,1303.17 1375.03,1304.62 1377.12,1304.33C1379.2,1304.04 1380.65,1302.11 1380.36,1300.02C1379.94,1297.01 1378.68,1292.58 1377.98,1288.44C1377.61,1286.26 1377.36,1284.18 1377.71,1282.62C1378.17,1280.56 1376.88,1278.52 1374.83,1278.06C1372.77,1277.6 1370.73,1278.89 1370.27,1280.94Z"/>
                    <path d="M1388.92,1282.04C1388.63,1283.92 1388.85,1286.42 1389.33,1289.04C1389.91,1292.19 1390.85,1295.58 1391.13,1297.93C1391.37,1300.02 1393.27,1301.52 1395.36,1301.27C1397.45,1301.02 1398.94,1299.13 1398.7,1297.04C1398.45,1294.94 1397.73,1292.06 1397.13,1289.21C1396.67,1286.97 1396.21,1284.76 1396.45,1283.17C1396.77,1281.1 1395.33,1279.15 1393.25,1278.84C1391.17,1278.52 1389.23,1279.96 1388.92,1282.04Z"/>
                    <path d="M1418.54,1280.71C1418.73,1281.98 1419.29,1283.44 1420.03,1284.93C1420.71,1286.33 1421.61,1287.77 1421.92,1289.06C1423.95,1297.33 1425.11,1306.28 1424.92,1314.79C1424.87,1316.89 1426.54,1318.64 1428.64,1318.68C1430.75,1318.73 1432.49,1317.06 1432.54,1314.96C1432.74,1305.8 1431.51,1296.15 1429.33,1287.25C1428.95,1285.73 1428.11,1284.02 1427.26,1282.35C1426.76,1281.36 1426.2,1280.43 1426.08,1279.6C1425.77,1277.52 1423.83,1276.08 1421.75,1276.39C1419.67,1276.69 1418.23,1278.63 1418.54,1280.71Z"/>
                    <path d="M1341.27,850.911C1323.02,942.443 1344.6,1013.35 1382.09,1095.46C1382.96,1097.38 1385.22,1098.22 1387.14,1097.35C1389.05,1096.47 1389.89,1094.21 1389.02,1092.3C1352.24,1011.74 1330.84,942.205 1348.75,852.401C1349.16,850.339 1347.82,848.33 1345.75,847.919C1343.69,847.507 1341.68,848.848 1341.27,850.911Z"/>
                    <path d="M1351.16,1042.36C1344.66,1059.56 1345.51,1094.15 1343.53,1113.43C1343.31,1115.53 1344.84,1117.4 1346.93,1117.62C1349.02,1117.83 1350.89,1116.31 1351.11,1114.21C1353.04,1095.46 1351.97,1061.79 1358.29,1045.06C1359.04,1043.09 1358.04,1040.89 1356.08,1040.15C1354.11,1039.4 1351.91,1040.4 1351.16,1042.36Z"/>
                    <path d="M1409.85,1169.8C1409.26,1169.55 1413.77,1162.39 1416.73,1157.45C1423.52,1146.11 1431.67,1135.66 1440.59,1125.91C1471.91,1091.65 1512.85,1073.49 1559.56,1077.82C1569.4,1078.74 1579.19,1080.29 1588.82,1082.51C1590.78,1082.96 1597.2,1083.47 1598.2,1085.77C1599.22,1088.13 1593.89,1095.14 1592.81,1096.98C1585.91,1108.73 1577.63,1119 1567.66,1128.29C1545.49,1148.93 1518.15,1163.49 1487.51,1165.43C1461.72,1167.07 1434.48,1158.76 1409.85,1169.8Z"/>
                    <path d="M1408.78,1172.29C1409.48,1172.58 1410.26,1172.58 1410.95,1172.27C1422.88,1166.92 1435.44,1166.31 1448.14,1166.79C1461.35,1167.29 1474.7,1168.95 1487.68,1168.13C1518.95,1166.14 1546.88,1151.33 1569.5,1130.26C1579.66,1120.8 1588.11,1110.33 1595.14,1098.35C1595.92,1097.01 1598.84,1093.05 1600.17,1089.95C1601.1,1087.81 1601.19,1085.88 1600.68,1084.7C1600.15,1083.48 1598.91,1082.37 1597.13,1081.64C1594.64,1080.61 1590.88,1080.21 1589.43,1079.88C1579.68,1077.63 1569.77,1076.06 1559.81,1075.13C1512.23,1070.72 1470.51,1089.19 1438.59,1124.09C1429.56,1133.97 1421.3,1144.56 1414.41,1156.06C1411.99,1160.11 1408.56,1165.62 1407.59,1167.79C1407.03,1169.05 1407.08,1169.99 1407.17,1170.36C1407.41,1171.38 1408.03,1171.96 1408.78,1172.29ZM1595.5,1086.87C1595.33,1087.38 1595.01,1088.3 1594.66,1088.95C1593.27,1091.61 1591.12,1094.53 1590.48,1095.61C1583.72,1107.13 1575.59,1117.21 1565.82,1126.31C1544.11,1146.53 1517.35,1160.83 1487.34,1162.74C1474.53,1163.55 1461.37,1161.88 1448.35,1161.39C1437.18,1160.97 1426.12,1161.42 1415.45,1164.79C1416.64,1162.81 1417.95,1160.67 1419.05,1158.84C1425.75,1147.65 1433.79,1137.35 1442.58,1127.74C1473.32,1094.12 1513.48,1076.26 1559.31,1080.51C1569.03,1081.41 1578.7,1082.95 1588.21,1085.14C1589.35,1085.41 1592.06,1085.68 1594.25,1086.34C1594.65,1086.47 1595.17,1086.71 1595.5,1086.87Z" style="fill:none;"/>
                    <path d="M1324.86,1172.32C1325.1,1171.77 1320.24,1167.89 1319.95,1167.63C1317.25,1165.18 1314.29,1162.99 1311.35,1160.83C1298.97,1151.75 1285.58,1143.34 1272.37,1135.53C1259.59,1127.98 1246.22,1121.76 1231.82,1118C1208.06,1111.8 1185.04,1115.68 1171.77,1137.39C1169.84,1140.55 1164.84,1146.29 1164.84,1150.23C1164.84,1154.46 1171.03,1160.87 1173.27,1164.04C1182.36,1176.87 1193.56,1191.57 1208.71,1197.44C1224.46,1203.55 1242.98,1198.53 1258.42,1193.93C1280.63,1187.32 1302.16,1177.19 1324.86,1172.32Z"/>
                    <path d="M1325.43,1174.96C1326.28,1174.78 1327,1174.19 1327.34,1173.39C1327.59,1172.83 1327.81,1171.84 1327.11,1170.68C1326.42,1169.52 1322.06,1165.89 1321.77,1165.63C1319,1163.12 1315.96,1160.86 1312.95,1158.65C1300.49,1149.52 1287.03,1141.06 1273.74,1133.2C1260.74,1125.52 1247.14,1119.2 1232.5,1115.38C1207.53,1108.87 1183.41,1113.17 1169.47,1135.98C1168.3,1137.89 1166.02,1140.74 1164.38,1143.57C1163.03,1145.9 1162.14,1148.26 1162.14,1150.23C1162.14,1152.34 1163.24,1154.93 1164.9,1157.48C1166.92,1160.57 1169.71,1163.68 1171.07,1165.6C1180.44,1178.84 1192.1,1193.9 1207.74,1199.96C1224.03,1206.29 1243.21,1201.28 1259.19,1196.52C1281.33,1189.93 1302.79,1179.81 1325.43,1174.96ZM1319.52,1170.78C1298.49,1175.97 1278.36,1185.18 1257.65,1191.34C1242.74,1195.78 1224.88,1200.82 1209.69,1194.93C1195.02,1189.23 1184.27,1174.9 1175.48,1162.48C1174.14,1160.59 1171.4,1157.56 1169.42,1154.53C1168.42,1152.99 1167.54,1151.51 1167.54,1150.23C1167.54,1149.05 1168.25,1147.68 1169.06,1146.27C1170.67,1143.49 1172.92,1140.68 1174.08,1138.8C1186.67,1118.2 1208.58,1114.73 1231.13,1120.61C1245.29,1124.31 1258.43,1130.43 1270.99,1137.85C1284.13,1145.62 1297.44,1153.98 1309.75,1163.01C1312.62,1165.11 1315.51,1167.25 1318.14,1169.63C1318.23,1169.72 1318.8,1170.18 1319.52,1170.78Z" style="fill:none;"/>
                    <g transform="matrix(1.19194,0,0,1.19194,816.778,569.068)">
                        <path d="M604.951,440.733L604.907,440.703C603.725,439.948 602.153,440.295 601.398,441.476C600.714,442.547 600.805,443.416 600.974,443.99C601.192,444.729 601.662,445.347 602.492,445.73C602.914,445.925 603.609,446.085 604.507,446.003C605.747,445.891 608.027,445.159 609.178,445.121C612.999,444.993 616.871,444.873 620.689,445.105C622.089,445.19 623.294,444.122 623.379,442.722C623.463,441.323 622.396,440.118 620.996,440.033C617.02,439.792 612.988,439.909 609.009,440.042C608.151,440.071 606.155,440.474 604.951,440.733Z" style="fill:white;"/>
                    </g>
                    <g transform="matrix(1.19194,0,0,1.19194,816.778,569.068)">
                        <path d="M373.917,489.259C374.352,489.299 375.377,489.407 376.189,489.59C379.718,490.385 384.333,492.105 385.317,492.405C386.659,492.813 388.079,492.055 388.488,490.714C388.896,489.372 388.138,487.952 386.797,487.544C385.459,487.136 377.832,484.346 374.298,484.168C372.155,484.061 370.84,484.971 370.326,485.867C369.628,487.083 370.048,488.637 371.264,489.335C372.12,489.826 373.144,489.764 373.917,489.259Z" style="fill:white;"/>
                    </g>
                </g>
                <g transform="matrix(0.0725724,0,0,0.0725724,1351.72,1477.32)">
                    <g transform="matrix(1.3116,0,0,1.3116,-680.309,127.209)">
                        <path d="M1464.21,329.66C1899.33,329.66 2252.59,589.85 2252.59,1118.04C2252.59,1696.41 1682.49,2046.94 1511.88,2138.89C1482.09,2154.83 1446.32,2154.84 1416.51,2138.94C1245.87,2047.17 675.833,1697.27 675.833,1118.04C675.833,591.981 1029.09,329.66 1464.21,329.66Z" style="fill:rgb(0,173,66);"/>
                    </g>
                    <g transform="matrix(0.767054,-1.26266,1.01851,0.618738,-786.868,2186.63)">
                        <path d="M639.318,654.103C639.318,654.103 795.656,821.843 795.656,1028.45C795.656,1235.06 639.318,1402.8 639.318,1402.8C639.318,1402.8 482.98,1235.06 482.98,1028.45C482.98,821.843 639.318,654.103 639.318,654.103Z"/>
                    </g>
                    <g transform="matrix(0.767054,1.26266,1.01851,-0.618738,191.413,1844.83)">
                        <path d="M639.318,654.103C639.318,654.103 795.656,821.843 795.656,1028.45C795.656,1235.06 639.318,1402.8 639.318,1402.8C639.318,1402.8 482.98,1235.06 482.98,1028.45C482.98,821.843 639.318,654.103 639.318,654.103Z"/>
                    </g>
                </g>
                <g transform="matrix(1.19194,0,0,1.19194,716.438,615.452)">
                    <path d="M814.642,1012.51C821.827,1002.46 839.31,1008.74 851.271,1006.76C863.001,1004.81 876.096,1001.63 886.408,1000.61C895.276,999.73 904.231,1000.61 913.142,1000.61C922.104,1000.61 932.34,1003.06 940.178,1000.61C948.017,998.16 953.868,991.847 958.269,985.623C962.669,979.4 965.673,971.059 966.58,963.271C967.648,954.107 967.636,941.653 966.58,930.922C965.513,920.067 963.787,908.673 960.174,898.143C955.773,885.321 939.894,870.142 940.178,853.987C941.246,793.365 966.58,534.409 966.58,534.409L940.178,359.904C940.178,359.904 652.04,348.045 642.752,359.904C633.463,371.763 516.403,829.886 516.403,829.886L516.403,1114.54L749.68,1148.93C749.68,1148.93 797.71,1036.21 814.642,1012.51Z" style="fill:none;"/>
                    <clipPath id="_clip2">
                        <path d="M814.642,1012.51C821.827,1002.46 839.31,1008.74 851.271,1006.76C863.001,1004.81 876.096,1001.63 886.408,1000.61C895.276,999.73 904.231,1000.61 913.142,1000.61C922.104,1000.61 932.34,1003.06 940.178,1000.61C948.017,998.16 953.868,991.847 958.269,985.623C962.669,979.4 965.673,971.059 966.58,963.271C967.648,954.107 967.636,941.653 966.58,930.922C965.513,920.067 963.787,908.673 960.174,898.143C955.773,885.321 939.894,870.142 940.178,853.987C941.246,793.365 966.58,534.409 966.58,534.409L940.178,359.904C940.178,359.904 652.04,348.045 642.752,359.904C633.463,371.763 516.403,829.886 516.403,829.886L516.403,1114.54L749.68,1148.93C749.68,1148.93 797.71,1036.21 814.642,1012.51Z"/>
                    </clipPath>
                    <g clip-path="url(#_clip2)">
                        <g transform="matrix(0.892592,-0.373164,0.373164,0.892592,-1377.32,342.117)">
                            <g transform="matrix(0.199681,0,0,0.199681,1428.5,817.17)">
                                <path d="M2692.13,3509.25C2672.95,3294.43 2605.59,2699.08 2713.96,2502.73C2758.39,2422.22 2835.52,2368.93 2897.62,2303.3C2952.99,2244.78 2951.16,2154.36 2988.32,2083.33C3017.63,2027.31 3117.2,1886.59 3156.96,1847.8C3202.41,1803.45 3264.28,1816.03 3319.07,1731.79C3333.91,1708.98 3339.62,1671.32 3286.05,1652.09C3155.73,1605.28 2991.49,1773.67 2925.51,1873.02C2904.91,1904.03 2846.54,2023.2 2801.99,2018.06C2763.27,2013.6 2757.56,1942.13 2753.64,1914.24C2743.96,1845.49 2743.5,1774.81 2742.6,1705.49C2742.05,1663.44 2739.62,1618.78 2732.46,1578.62C2725.43,1539.2 2721.34,1519.17 2701.78,1488.12C2659.93,1421.68 2623.6,1360.35 2513.27,1433.05C2503.01,1439.81 2481.73,1450.14 2475.69,1461.68L2255.24,1480.01C2180.22,1450.53 2061.28,1456.39 2018.49,1535.24C1996.13,1576.45 1991.4,1625.15 1978.05,1669.54C1960.17,1729.02 1937.91,1779.67 1944.01,1843.57C1954.4,1952.57 2028.41,2203.57 2082.67,2297.5C2104.83,2335.86 2136.28,2365.01 2164.01,2398.93C2201.43,2444.71 2228.7,2499.25 2246.95,2555.31C2287.75,2680.59 2270.39,2810.17 2262.7,2938.87C2257.45,3026.75 2283.41,3412.24 2278.12,3500.11" style="fill:rgb(148,115,78);"/>
                            </g>
                            <g transform="matrix(0.199681,0,0,0.199681,1428.5,817.17)">
                                <path d="M2464.2,1440.29L2258.41,1457.4C2209.71,1439.6 2145.7,1435.18 2092.05,1452C2052.67,1464.34 2018.86,1487.88 1998.92,1524.62C1975.84,1567.16 1970.51,1617.3 1956.73,1663.12C1937.98,1725.47 1915.45,1778.71 1921.84,1845.69C1932.44,1956.86 2008.05,2212.84 2063.39,2308.64C2086.16,2348.05 2118.28,2378.16 2146.77,2413.02C2182.46,2456.68 2208.37,2508.74 2225.78,2562.2C2265.7,2684.79 2248,2811.62 2240.48,2937.55C2235.23,3025.42 2270.84,3600.12 2265.54,3687.99C2264.8,3700.25 2274.16,3710.81 2286.43,3711.55C2298.7,3712.29 2309.26,3702.93 2309.99,3690.66C2315.29,3602.8 2279.68,3028.08 2284.93,2940.2C2292.78,2808.73 2309.8,2676.39 2268.12,2548.41C2249.02,2489.76 2220.41,2432.74 2181.25,2384.83C2154.28,2351.85 2123.5,2323.66 2101.95,2286.36C2048.78,2194.31 1976.36,1948.28 1966.17,1841.46C1960.37,1780.63 1982.35,1732.58 1999.38,1675.95C2012.29,1632.99 2016.42,1585.74 2038.06,1545.86C2052.35,1519.52 2077.14,1503.34 2105.36,1494.49C2151.27,1480.11 2206.34,1484.72 2247.1,1500.73C2250.27,1501.98 2253.68,1502.48 2257.08,1502.2C2455.49,1485.7 2477.32,1483.89 2477.32,1483.89L2477.26,1483.89C2484.93,1483.35 2491.82,1478.88 2495.42,1472.01C2497.03,1468.94 2501.27,1466.73 2505.19,1464.14C2512.53,1459.28 2520.4,1455.02 2525.52,1451.64C2562.55,1427.24 2589.07,1418.98 2610.5,1423.65C2625.04,1426.81 2636.36,1436.13 2646.77,1447.92C2659.74,1462.62 2671.06,1481.12 2682.94,1499.99C2700.75,1528.27 2704.14,1546.62 2710.54,1582.53C2717.49,1621.54 2719.8,1664.93 2720.33,1705.78C2721.25,1776.03 2721.78,1847.67 2731.59,1917.35C2734.13,1935.39 2737.71,1970.27 2748.91,1996.39C2759.28,2020.6 2776.23,2037.5 2799.43,2040.18C2818.23,2042.35 2840.17,2031.49 2860.5,2010.26C2895.15,1974.09 2929.25,1907.63 2944.05,1885.34C2982.2,1827.9 3054.3,1746.4 3133.1,1700.23C3181.48,1671.88 3232.27,1656.43 3278.53,1673.04C3292.72,1678.14 3301.38,1684.16 3305.13,1691.75C3309.92,1701.43 3305.42,1711.95 3300.41,1719.65C3270.83,1765.13 3238.74,1778.95 3209.14,1791.59C3184.67,1802.03 3161.69,1812.07 3141.41,1831.86C3100.69,1871.59 2998.61,2015.63 2968.59,2073.01C2949.31,2109.85 2939.91,2151.63 2928.39,2191.88C2918.28,2227.19 2906.65,2261.36 2881.45,2287.99C2818.07,2354.98 2739.81,2409.8 2694.46,2491.97C2660.88,2552.81 2643.56,2668.15 2637.66,2806.05C2624.3,3118.62 2666.13,3549.58 2679.6,3700.45C2680.7,3712.69 2691.52,3721.74 2703.76,3720.65C2716,3719.56 2725.05,3708.73 2723.96,3696.49C2710.58,3546.61 2668.88,3118.47 2682.16,2807.95C2687.68,2678.81 2702.01,2570.46 2733.45,2513.49C2776.97,2434.64 2852.97,2382.88 2913.8,2318.6C2943.97,2286.71 2959.1,2246.41 2971.2,2204.13C2981.9,2166.78 2990.16,2127.84 3008.05,2093.66C3036.65,2038.98 3133.71,1901.59 3172.51,1863.73C3193.31,1843.43 3218.22,1836.8 3243.85,1824.97C3274.94,1810.61 3307.32,1790.71 3337.74,1743.93C3350.54,1724.25 3357.28,1696.73 3345.05,1672.01C3337.46,1656.67 3322.26,1641.43 3293.58,1631.13C3235.57,1610.3 3171.26,1626.26 3110.59,1661.81C3025.81,1711.48 2947.99,1798.91 2906.96,1860.7C2894.78,1879.04 2869.28,1928.73 2841.27,1964.41C2833.12,1974.79 2824.85,1983.92 2816.59,1990.13C2812.27,1993.37 2808.54,1996.4 2804.54,1995.94C2796.71,1995.04 2793.34,1987.01 2789.84,1978.85C2780.27,1956.52 2777.86,1926.56 2775.69,1911.14C2766.14,1843.32 2765.75,1773.58 2764.86,1705.2C2764.3,1661.95 2761.74,1616.02 2754.38,1574.71C2746.73,1531.77 2741.92,1510.08 2720.62,1476.26C2707.4,1455.26 2694.6,1434.81 2680.15,1418.45C2663.14,1399.17 2643.74,1385.31 2619.97,1380.13C2590.31,1373.68 2552.26,1380.69 2501.02,1414.46C2494.65,1418.65 2484.2,1424.22 2475.48,1430.55C2471.27,1433.61 2467.45,1436.9 2464.2,1440.29Z"/>
                            </g>
                            <path d="M1871.89,1162.33C1886.03,1115.62 1883.97,1067.64 1882.92,1019.48C1882.62,1005.47 1883.3,991.473 1883.05,977.461C1882.82,964.515 1882,948.698 1885.9,936.231C1887.71,930.461 1893.8,924.822 1900.17,925.326C1917.33,926.68 1917.53,952.08 1917.7,963.908C1917.74,967.185 1917.83,970.461 1917.87,973.738C1918.05,987.333 1916.47,1000.72 1915.88,1014.27C1914.59,1043.89 1914.41,1073.7 1918.62,1103.11C1920.23,1114.43 1923.4,1125.36 1926.51,1136.35C1929.5,1146.9 1932.49,1155.85 1927.87,1166.55C1920.42,1183.85 1892.11,1204.16 1874.65,1187.3C1864.35,1177.35 1866.57,1161.03 1870.86,1148.79" style="fill:rgb(148,115,78);"/>
                            <path d="M1871.97,1144.49C1869.76,1143.91 1867.44,1145.12 1866.67,1147.32C1861.85,1161.06 1860,1179.33 1871.56,1190.5C1879.82,1198.48 1890.11,1199.56 1900.08,1196.51C1913.94,1192.27 1927.06,1179.69 1931.96,1168.31C1937.02,1156.57 1934.07,1146.72 1930.79,1135.14C1927.74,1124.35 1924.61,1113.61 1923.02,1102.48C1918.85,1073.34 1919.04,1043.81 1920.32,1014.47C1920.91,1000.82 1922.5,987.359 1922.32,973.68C1922.27,970.401 1922.19,967.123 1922.14,963.845C1922.04,956.31 1921.8,943.604 1917.79,934.321C1914.6,926.947 1909.2,921.579 1900.52,920.893C1892.18,920.235 1884.03,927.353 1881.66,934.902C1877.62,947.798 1878.36,964.15 1878.6,977.541C1878.85,991.558 1878.17,1005.56 1878.48,1019.58C1879.39,1061.59 1881.15,1103.48 1871.97,1144.49ZM1871.73,1166.78C1871.71,1167.44 1871.71,1168.11 1871.73,1168.78C1871.89,1174.47 1873.46,1179.97 1877.74,1184.1C1883.44,1189.61 1890.6,1190.12 1897.48,1188.01C1908.9,1184.51 1919.75,1174.17 1923.79,1164.79C1927.95,1155.14 1924.93,1147.08 1922.23,1137.56C1919.07,1126.38 1915.86,1115.26 1914.21,1103.74C1909.97,1074.06 1910.13,1043.97 1911.43,1014.08C1912.02,1000.61 1913.6,987.307 1913.42,973.797C1913.38,970.521 1913.3,967.246 1913.25,963.971C1913.16,957.312 1913.17,946.053 1909.62,937.849C1907.77,933.564 1904.87,930.156 1899.82,929.758C1895.41,929.41 1891.4,933.566 1890.15,937.559C1886.38,949.599 1887.27,964.88 1887.49,977.382C1887.74,991.387 1887.06,1005.38 1887.37,1019.38C1888.42,1068.01 1890.43,1116.46 1876.14,1163.62C1875.55,1165.6 1873.7,1166.85 1871.73,1166.78Z" style="fill:none;"/>
                            <g transform="matrix(0.199681,0,0,0.199681,1428.5,817.17)">
                                <path d="M2250.49,1675.67L2250.72,1674.49C2251.41,1670.2 2252.32,1665.95 2253.2,1661.71C2255.22,1651.93 2257.29,1642.17 2259.04,1632.34C2264.29,1602.79 2267.99,1572.94 2271.38,1543.13C2281.57,1453.33 2283.01,1364.14 2281.38,1273.85C2279.48,1168.43 2283.99,1144.24 2286.45,1038.79C2289.08,925.993 2288.32,884.623 2286.45,769.664C2285.54,713.504 2288.43,642.646 2307.29,595.092C2316.63,571.54 2329.13,553.505 2351.13,553.639C2385.76,553.851 2420.59,573.996 2432.16,628.349C2441.33,671.462 2437.41,813.334 2431.76,875.095C2414.91,1059.42 2409.74,1158.28 2431.83,1342.04C2443.55,1439.56 2457.59,1539.63 2491.32,1632.39C2495.52,1643.94 2508.31,1649.91 2519.86,1645.71C2531.41,1641.51 2537.37,1628.72 2533.17,1617.17C2500.6,1527.59 2487.36,1430.9 2476.04,1336.72C2454.39,1156.65 2459.59,1059.78 2476.11,879.149C2482.06,814.054 2485.38,664.523 2475.71,619.081C2458.3,537.229 2403.55,509.426 2351.4,509.108C2311.21,508.863 2282.96,535.645 2265.89,578.676C2245.17,630.934 2240.92,708.671 2241.92,770.387C2243.78,884.593 2244.54,925.693 2241.93,1037.75C2239.45,1144.03 2234.94,1168.41 2236.85,1274.65C2238.44,1362.99 2237.1,1450.25 2227.13,1538.11C2223.85,1566.99 2220.28,1595.91 2215.19,1624.54C2213.51,1633.97 2211.52,1643.32 2209.58,1652.69C2208.58,1657.56 2207.55,1662.44 2206.76,1667.35C2206.64,1668.1 2206.31,1670.07 2206.29,1670.3C2204.87,1685.42 2215.98,1690.95 2217.83,1691.95C2222.93,1694.72 2228.52,1695.55 2234.67,1693.77C2236.67,1693.18 2244.73,1691.56 2249.11,1680.72C2249.25,1680.37 2249.58,1679.58 2249.95,1678.22C2250.19,1677.37 2250.37,1676.52 2250.49,1675.67ZM2212.44,1656.86C2211.33,1657.81 2208.66,1660.44 2207.02,1666.37C2208.05,1662.67 2209.95,1659.44 2212.44,1656.86ZM2249.66,1665.41L2249.76,1665.73L2249.72,1665.61L2249.66,1665.41ZM2247.47,1660.68C2248.32,1662.06 2249.01,1663.53 2249.54,1665.07C2248.96,1663.32 2248.23,1661.87 2247.47,1660.68ZM2223.07,1650.7C2221.08,1651.17 2218.98,1651.97 2216.85,1653.32C2218.77,1652.14 2220.87,1651.26 2223.07,1650.7Z"/>
                            </g>
                            <g transform="matrix(0.199681,0,0,0.199681,1428.5,817.17)">
                                <path d="M2032.41,1762.57L2032.57,1762.4C2036.84,1758.22 2042.32,1755.13 2047.58,1752.37C2061.18,1745.25 2074.82,1741.72 2089.25,1748.03C2100.51,1752.95 2113.65,1747.8 2118.57,1736.54C2123.49,1725.28 2118.34,1712.14 2107.08,1707.22C2079.39,1695.12 2053,1699.26 2026.91,1712.93C2017.87,1717.66 2008.75,1723.4 2001.41,1730.6C2001.05,1730.95 1995.17,1738.1 1994.38,1739.86C1988.54,1752.9 1995.04,1761.54 2000.16,1765.95C2009.48,1773.97 2023.55,1772.92 2031.57,1763.61C2031.86,1763.27 2032.14,1762.92 2032.41,1762.57ZM2035.91,1755.86C2040.07,1744.15 2034.01,1736.33 2029.23,1732.21C2036.2,1738.21 2038.54,1747.61 2035.91,1755.86Z"/>
                            </g>
                            <g transform="matrix(0.199681,0,0,0.199681,1428.5,817.17)">
                                <path d="M2109.76,1844.58C2110.93,1834.36 2104.83,1824.35 2094.68,1820.97C2083.02,1817.08 2070.4,1823.39 2066.51,1835.05C2065.42,1838.33 2064.57,1844.61 2065.86,1852.71C2068.04,1866.41 2076.49,1892.4 2078.1,1898.45C2090.69,1946.03 2105.31,1992.89 2121.72,2039.3C2125.82,2050.88 2138.56,2056.96 2150.14,2052.86C2161.73,2048.76 2167.81,2036.03 2163.71,2024.44C2147.69,1979.18 2133.43,1933.47 2121.14,1887.05L2109.76,1844.58Z"/>
                            </g>
                            <g transform="matrix(0.199681,0,0,0.199681,1428.5,817.17)">
                                <path d="M2269.75,1779.83C2276.75,1791.81 2281.13,1806.62 2287.23,1819.21C2302.16,1850.02 2317.98,1880.33 2333.49,1910.85C2339.06,1921.81 2352.48,1926.18 2363.43,1920.62C2374.39,1915.05 2378.76,1901.63 2373.19,1890.68C2357.81,1860.41 2342.11,1830.35 2327.3,1799.78C2320.71,1786.19 2315.76,1770.29 2308.19,1757.35C2301.98,1746.74 2288.33,1743.17 2277.72,1749.37C2267.12,1755.57 2263.54,1769.22 2269.75,1779.83Z"/>
                            </g>
                            <g transform="matrix(0.199681,0,0,0.199681,1428.5,817.17)">
                                <path d="M2431.23,1718.58C2421.73,1731.45 2417.65,1756.38 2413.75,1771.4C2404.16,1808.34 2396.32,1845.3 2389.95,1882.92C2387.9,1895.04 2396.08,1906.54 2408.19,1908.59C2420.31,1910.64 2431.81,1902.47 2433.86,1890.35C2440.01,1854 2447.59,1818.29 2456.86,1782.59C2458.53,1776.12 2460.01,1767.45 2462.07,1759C2463.36,1753.75 2464.53,1748.45 2467.07,1745.01C2474.36,1735.12 2472.25,1721.17 2462.36,1713.87C2452.47,1706.58 2438.52,1708.69 2431.23,1718.58Z"/>
                            </g>
                            <g transform="matrix(0.199681,0,0,0.199681,1428.5,817.17)">
                                <path d="M2578.4,1724.39C2579.47,1723.96 2587.95,1720.5 2591.44,1719.2C2608.68,1712.8 2627.16,1709.01 2645.37,1712.84C2657.39,1715.37 2669.21,1707.66 2671.74,1695.64C2674.28,1683.61 2666.57,1671.8 2654.54,1669.26C2628.05,1663.69 2601.03,1668.14 2575.94,1677.46C2566.57,1680.93 2552.38,1686.49 2545.47,1694.44C2537.4,1703.71 2538.38,1717.78 2547.65,1725.85C2556.67,1733.7 2570.25,1732.99 2578.4,1724.39Z"/>
                            </g>
                            <g transform="matrix(0.199681,0,0,0.199681,1428.5,817.17)">
                                <path d="M2628.55,1776.71C2624.76,1823.1 2621.05,1869.43 2618.72,1915.95C2618.11,1928.23 2627.57,1938.69 2639.85,1939.31C2652.12,1939.92 2662.58,1930.45 2663.2,1918.18C2665.5,1872.12 2669.18,1826.26 2672.93,1780.34C2673.93,1768.09 2664.8,1757.33 2652.55,1756.33C2640.3,1755.33 2629.55,1764.46 2628.55,1776.71Z"/>
                            </g>
                            <g transform="matrix(1,1.66533e-16,-1.66533e-16,1,340.977,-269.26)">
                                <path d="M1540.63,1608.61C1560.28,1620.35 1589.01,1620.64 1620.06,1608.61L1613.91,1670.24L1625.28,1824.94L1544.51,1824.94C1544.14,1752.16 1545.92,1678.2 1540.63,1608.61Z"/>
                            </g>
                            <g transform="matrix(1,1.66533e-16,-1.66533e-16,1,340.977,-269.26)">
                                <path d="M1542.91,1604.8C1541.48,1603.94 1539.7,1603.96 1538.29,1604.83C1536.88,1605.71 1536.07,1607.3 1536.19,1608.95C1541.48,1678.44 1539.69,1752.29 1540.06,1824.97C1540.07,1827.41 1542.06,1829.39 1544.51,1829.39L1625.28,1829.39C1626.52,1829.39 1627.7,1828.88 1628.54,1827.97C1629.38,1827.07 1629.81,1825.85 1629.71,1824.62L1618.37,1670.3C1618.37,1670.3 1624.48,1609.06 1624.48,1609.06C1624.63,1607.52 1623.98,1606.01 1622.75,1605.08C1621.52,1604.14 1619.89,1603.91 1618.45,1604.47C1588.92,1615.9 1561.6,1615.95 1542.91,1604.8ZM1545.63,1616.13C1564.18,1624.04 1588.57,1624.02 1614.93,1615.19C1614.93,1615.19 1609.48,1669.8 1609.48,1669.8C1609.46,1670.05 1609.45,1670.31 1609.47,1670.57L1620.5,1820.5C1620.5,1820.5 1548.93,1820.5 1548.93,1820.5C1548.66,1751.77 1550.14,1682.1 1545.63,1616.13L1545.63,1616.13Z"/>
                            </g>
                        </g>
                    </g>
                </g>
            </g>
        </g>
    </g>
</svg>
